# xmcd
#
# Track frame offsets:
#	150
#	54070
#	70270
#	91070
#	106220
#	134160
#	153770
#
# Disc length: 2321 seconds
#
# Revision: 1
# Processed by: cddbd v1.5.1PL0 Copyright (c) Steve Scherf et al.
# Submitted via: EasyCDDAExtractor 8.0.2.1
#
DISCID=50090f07
DTITLE=Ozzy Osbourne - Rudi Sedlmeyer Halle Munich 21-04-89 Disc 2
DYEAR=1989
DGENRE=Hard Rock
TTITLE0=Tattoed Dancer
TTITLE1=Miracle Man
TTITLE2=Suicide Solution
TTITLE3=Iron Man
TTITLE4=Crazy Train 
TTITLE5=Bark At The Moon
TTITLE6=Paranoid
EXTD=
EXTT0=
EXTT1=
EXTT2=
EXTT3=
EXTT4=
EXTT5=
EXTT6=
PLAYORDER=
